#define splashscreen_width 128
#define splashscreen_height 64
static unsigned char splashscreen_bits[] = {
   0x00, 0x00, 0x00, 0x00, 0x00, 0x00, 0x00, 0x00, 0x00, 0x00, 0x00, 0x00,
   0x00, 0x00, 0x00, 0x00, 0x00, 0x00, 0x00, 0x00, 0x00, 0x00, 0x00, 0x00,
   0x00, 0x00, 0x00, 0x00, 0x00, 0x00, 0x00, 0x00, 0x00, 0x00, 0x00, 0x00,
   0x00, 0x00, 0x00, 0x00, 0x00, 0x00, 0x00, 0x00, 0x00, 0x00, 0x00, 0x00,
   0x00, 0x00, 0x00, 0x00, 0x00, 0x00, 0x00, 0x00, 0x00, 0x00, 0x00, 0xc3,
   0x60, 0x30, 0x00, 0x00, 0x00, 0x00, 0x00, 0x00, 0x00, 0x00, 0x00, 0x00,
   0x00, 0x00, 0x80, 0xc3, 0xe1, 0x38, 0x00, 0x00, 0x00, 0x00, 0x00, 0x00,
   0x00, 0x00, 0x00, 0x00, 0x00, 0x00, 0x00, 0xc3, 0x61, 0x30, 0x00, 0x00,
   0x00, 0x00, 0x00, 0x00, 0x00, 0x00, 0x00, 0x00, 0x00, 0x00, 0x00, 0x00,
   0x00, 0x00, 0x00, 0x00, 0x00, 0x00, 0x00, 0x00, 0x00, 0x00, 0x00, 0x00,
   0x00, 0x00, 0x00, 0x00, 0x00, 0x00, 0x00, 0x00, 0x00, 0x00, 0x00, 0x00,
   0x00, 0x00, 0x00, 0x00, 0x00, 0x00, 0x00, 0x00, 0x00, 0x00, 0x00, 0x00,
   0x00, 0x00, 0x00, 0x00, 0x00, 0x00, 0x00, 0x00, 0x80, 0x01, 0x70, 0x18,
   0x0e, 0x87, 0xc1, 0x00, 0x00, 0x00, 0x03, 0x00, 0x00, 0x00, 0x00, 0x00,
   0xc0, 0x01, 0x70, 0x38, 0x0e, 0x87, 0xe3, 0x00, 0x00, 0x0f, 0x03, 0x00,
   0x00, 0x00, 0x00, 0x00, 0x80, 0x01, 0x30, 0x18, 0x0c, 0x82, 0xc1, 0x00,
   0x00, 0x0f, 0x00, 0x00, 0x00, 0x00, 0x00, 0x00, 0x00, 0x00, 0x00, 0x00,
   0x00, 0x00, 0x00, 0x00, 0x00, 0x0f, 0xf3, 0x01, 0x00, 0x00, 0x00, 0x00,
   0x00, 0x00, 0x00, 0x00, 0x00, 0x00, 0x00, 0x00, 0x80, 0x1f, 0x73, 0x00,
   0x00, 0x00, 0x00, 0x00, 0x00, 0x00, 0x00, 0x00, 0x00, 0x00, 0x00, 0x00,
   0x80, 0x19, 0x33, 0x00, 0x00, 0x00, 0x00, 0x00, 0x38, 0x1c, 0x86, 0xc3,
   0x61, 0x38, 0x1c, 0x06, 0xc0, 0x39, 0x33, 0x00, 0x00, 0x00, 0x00, 0x00,
   0x38, 0x1c, 0x8e, 0xc3, 0x61, 0x38, 0x1c, 0x07, 0xc0, 0x3f, 0x33, 0x00,
   0x00, 0x00, 0x00, 0x00, 0x10, 0x08, 0x04, 0x81, 0x20, 0x10, 0x08, 0x02,
   0xc0, 0x30, 0x33, 0x00, 0x00, 0x00, 0x00, 0x00, 0x00, 0x00, 0x00, 0x00,
   0x00, 0x00, 0x00, 0x00, 0xe0, 0x70, 0x33, 0x00, 0x00, 0x00, 0x00, 0x00,
   0x00, 0x00, 0x00, 0x00, 0x00, 0x00, 0x00, 0x00, 0x00, 0x00, 0x00, 0x00,
   0x00, 0x00, 0x00, 0x00, 0x81, 0x40, 0x20, 0x10, 0x04, 0x02, 0x41, 0x00,
   0x00, 0x00, 0x00, 0x00, 0x00, 0x00, 0x00, 0x80, 0x83, 0xe1, 0x70, 0x18,
   0x0e, 0x87, 0xe3, 0x00, 0x00, 0x00, 0x00, 0x00, 0x00, 0x00, 0x00, 0x80,
   0x83, 0xe1, 0x70, 0x18, 0x0e, 0x87, 0xc3, 0x00, 0x00, 0x00, 0x00, 0x00,
   0x00, 0x00, 0x00, 0x00, 0x00, 0x00, 0x00, 0x00, 0x00, 0x00, 0x00, 0x00,
   0x00, 0x00, 0x00, 0x00, 0x00, 0x00, 0x00, 0x00, 0x00, 0x00, 0x00, 0x00,
   0x00, 0x00, 0x00, 0x00, 0x00, 0x00, 0x00, 0x00, 0x00, 0x00, 0x00, 0x00,
   0x00, 0x00, 0x00, 0x00, 0x00, 0x00, 0x00, 0x00, 0x00, 0x00, 0x00, 0x00,
   0x00, 0x00, 0x00, 0x00, 0x30, 0x0c, 0x06, 0xc3, 0x60, 0x30, 0x08, 0x06,
   0x00, 0x00, 0x00, 0x00, 0x98, 0x01, 0x00, 0x00, 0x38, 0x1c, 0x86, 0xc3,
   0xe1, 0x38, 0x1c, 0x0e, 0x00, 0x1f, 0x00, 0x00, 0x98, 0x39, 0x00, 0x00,
   0x38, 0x1c, 0x86, 0xc3, 0x61, 0x38, 0x1c, 0x06, 0x80, 0x31, 0x00, 0x00,
   0x18, 0x38, 0x00, 0x00, 0x00, 0x00, 0x00, 0x00, 0x00, 0x00, 0x00, 0x00,
   0xc0, 0x71, 0xc6, 0x7c, 0x98, 0xfd, 0xc7, 0x00, 0x00, 0x00, 0x00, 0x00,
   0x00, 0x00, 0x00, 0x00, 0xc0, 0x60, 0xc6, 0xc0, 0x98, 0x39, 0xe6, 0x00,
   0x00, 0x00, 0x00, 0x00, 0x00, 0x00, 0x00, 0x00, 0xc0, 0x60, 0xc6, 0xc0,
   0x99, 0x39, 0x66, 0x00, 0x80, 0xc1, 0x30, 0x00, 0x0c, 0x07, 0xc0, 0x00,
   0xc0, 0x60, 0xc6, 0xf8, 0x99, 0x39, 0x6c, 0x00, 0xc0, 0xe1, 0x70, 0x00,
   0x0e, 0x07, 0xe0, 0x00, 0xc0, 0x71, 0xc6, 0xcc, 0x99, 0x39, 0x7c, 0x00,
   0x80, 0xc1, 0x30, 0x00, 0x0c, 0x07, 0xc0, 0x00, 0x80, 0x31, 0xee, 0xcc,
   0x99, 0x39, 0x3c, 0x00, 0x00, 0x00, 0x00, 0x00, 0x00, 0x00, 0x00, 0x00,
   0x00, 0x1f, 0xdc, 0xfc, 0x99, 0xf1, 0x38, 0x00, 0x00, 0x00, 0x00, 0x00,
   0x00, 0x00, 0x00, 0x00, 0x00, 0x18, 0x00, 0x00, 0x00, 0x00, 0x38, 0x00,
   0x00, 0x00, 0x00, 0x00, 0x00, 0x00, 0x00, 0x00, 0x00, 0x30, 0x00, 0x00,
   0x00, 0x00, 0x18, 0x00, 0x38, 0x1c, 0x86, 0x03, 0x00, 0xfc, 0xff, 0x00,
   0x00, 0x00, 0x00, 0x00, 0x00, 0x00, 0x0e, 0x00, 0x38, 0x1c, 0x86, 0x03,
   0x00, 0xfc, 0xff, 0x00, 0x00, 0x00, 0x00, 0x00, 0x00, 0x00, 0x00, 0x00,
   0x10, 0x0c, 0x06, 0x03, 0x00, 0xfc, 0xff, 0x00, 0x00, 0x00, 0x00, 0x00,
   0x00, 0x00, 0x00, 0x00, 0x00, 0x00, 0x00, 0x00, 0x00, 0xfc, 0xff, 0x00,
   0x00, 0x00, 0x00, 0x00, 0x00, 0x00, 0x00, 0x00, 0x00, 0x00, 0x00, 0x00,
   0x00, 0xfc, 0xff, 0x00, 0x00, 0x00, 0x00, 0x00, 0x00, 0x00, 0x00, 0x00,
   0x00, 0x00, 0x00, 0x00, 0x00, 0xfc, 0xff, 0x00, 0x00, 0x00, 0x00, 0x00,
   0x00, 0x00, 0x00, 0x80, 0x83, 0xe1, 0x70, 0xf8, 0xff, 0xfc, 0xff, 0x00,
   0x80, 0x1f, 0x00, 0x00, 0x00, 0x00, 0x00, 0x80, 0x83, 0xe1, 0x70, 0xf8,
   0xff, 0xfc, 0xff, 0x00, 0xc0, 0x10, 0x00, 0x00, 0x00, 0x00, 0x00, 0x00,
   0x01, 0x40, 0x20, 0xf8, 0xff, 0xfc, 0x00, 0x00, 0xc0, 0x00, 0x0f, 0x3f,
   0x3c, 0x7c, 0x7c, 0x00, 0x00, 0x00, 0x00, 0xf8, 0xff, 0xfc, 0x00, 0x00,
   0xc0, 0x83, 0x3b, 0x67, 0x46, 0xee, 0x1c, 0x00, 0x00, 0x00, 0x00, 0xf8,
   0xff, 0xfc, 0x00, 0x00, 0x80, 0x9f, 0x31, 0x63, 0x06, 0xc6, 0x0c, 0x00,
   0x10, 0x00, 0x00, 0xf8, 0xff, 0xfc, 0xf8, 0x3f, 0x00, 0x9e, 0x3f, 0x63,
   0x7e, 0xc6, 0x0c, 0x00, 0x38, 0xe0, 0x7f, 0xf8, 0xff, 0xfc, 0xf8, 0x3f,
   0x00, 0x98, 0x01, 0x63, 0x70, 0xc6, 0x0c, 0x00, 0x38, 0xf0, 0x7f, 0xe0,
   0xff, 0xfc, 0xf8, 0x3f, 0x40, 0x98, 0x23, 0x63, 0x62, 0xee, 0x0c, 0x00,
   0x00, 0xf0, 0xff, 0x00, 0xfe, 0xfc, 0xf8, 0x3f, 0xc0, 0x0f, 0x1f, 0x63,
   0x3c, 0x7c, 0x0c, 0x00, 0x00, 0xf8, 0xff, 0x01, 0xfc, 0xfc, 0xf8, 0x3f,
   0x00, 0x00, 0x00, 0x00, 0x00, 0x00, 0x00, 0x00, 0x00, 0xfe, 0xff, 0x07,
   0xfc, 0xfc, 0xf8, 0x3f, 0x00, 0x00, 0x00, 0x00, 0x00, 0x00, 0x00, 0x00,
   0xc3, 0xff, 0xff, 0x7f, 0xfc, 0xfc, 0xf8, 0x3f, 0x00, 0x00, 0x00, 0x00,
   0x00, 0x00, 0x00, 0x00, 0xc7, 0xff, 0xff, 0x7f, 0xfc, 0xfc, 0xf8, 0x3f,
   0x00, 0x00, 0x00, 0x00, 0x00, 0x00, 0x00, 0x00, 0xc3, 0xff, 0xff, 0x7f,
   0xfc, 0xfc, 0xf8, 0x3f, 0x00, 0x00, 0x00, 0x00, 0x00, 0x00, 0x00, 0x00,
   0xc0, 0xff, 0xff, 0x7f, 0xfc, 0xfc, 0xf8, 0x3f, 0x00, 0x00, 0x00, 0x00,
   0x00, 0x00, 0x00, 0x00, 0xc0, 0xff, 0xff, 0x7f, 0xfc, 0xfc, 0xf8, 0x3f,
   0x00, 0x00, 0x00, 0x00, 0x00, 0x00, 0x00, 0x00, 0x00, 0x3f, 0xc0, 0x0f,
   0x00, 0x00, 0xf8, 0x3f, 0x00, 0x00, 0x00, 0x00, 0x00, 0x00, 0x00, 0x00,
   0x00, 0x3f, 0xc0, 0x0f, 0x00, 0x00, 0x00, 0x00, 0x00, 0x00, 0x00, 0x00,
   0x00, 0x00, 0x00, 0x00, 0x00, 0x1e, 0x80, 0x07, 0x00, 0x00, 0x00, 0x00,
   0x00, 0x00, 0x00, 0x00, 0x00, 0x00, 0x00, 0x00, 0x00, 0x00, 0x00, 0x00,
   0x00, 0x00, 0x00, 0x00 };
